<svg xmlns="http://www.w3.org/2000/svg" width="1442" height="714" viewBox="0 0 1442 714">
  <defs>
    <style>
      .cls-1 {
        fill: #2c2c2c;
      }

      .cls-2, .cls-4, .cls-6 {
        fill: none;
      }

      .cls-2, .cls-4 {
        stroke: #fdf8db;
      }

      .cls-2 {
        stroke-width: 7px;
      }

      .cls-3 {
        fill: #fdf8db;
      }

      .cls-4 {
        stroke-width: 5px;
      }

      .cls-5 {
        stroke: none;
      }

      @keyframes tail {
        0% {
          transform: rotateY(0deg);
        }
        100% {
          transform: rotateY(360deg);
        }
      }

       @keyframes shootingStar {
        0% {
          opacity: 0;
          scale: .5;
          transform: translate(0,0);
          
        transform-origin: center;
        }
        25%{
          opacity: 1;
        }
        75% {
          opacity: 1;
        }
        100% {
          opacity: 0;
          transform: translate(-250px,250px);
        }
      }

      @keyframes spin{
        0% {
          transform: rotate(0deg);
        }
        100% {
          transform: rotate(360deg);
        }
      }
      #Tail {
        animation: tail 2s infinite linear;
        animation-direction: normal;
        transform-origin: bottom left;
        transform-box: fill-box;
      }

      #Shooting_Star{
        animation: shootingStar 2s infinite linear;
        transform-box: fill-box;
        transform-origin: center;
      }

      #star{
        animation: spin 2s infinite linear;
        transform-box: fill-box;
        transform-origin: center;
      }
    </style>
  </defs>
  <g id="Banner" transform="translate(-197 -183)">
    <rect id="BG" class="cls-1" width="1442" height="714" rx="14" transform="translate(197 183)"/>
    <g id="Window" class="cls-2" transform="translate(397 280)">
      <rect class="cls-5" width="1046" height="518" rx="14"/>
      <rect class="cls-6" x="3.5" y="3.5" width="1039" height="511" rx="10.5"/>
    </g>
    <g id="Taskbar">
      <rect id="Rectangle_2" data-name="Rectangle 2" class="cls-3" width="1046" height="68" rx="12" transform="translate(397 280)"/>
      <rect id="Empty" class="cls-1" width="35" height="35" transform="translate(418 298)"/>
      <g id="Minimize">
        <rect id="Rectangle_3" data-name="Rectangle 3" class="cls-1" width="35" height="35" transform="translate(1287 298)"/>
        <rect id="Rectangle_7" data-name="Rectangle 7" class="cls-3" width="25" height="12" transform="translate(1292 316)"/>
      </g>
      <g id="Expand">
        <rect id="Rectangle_5" data-name="Rectangle 5" class="cls-1" width="35" height="35" transform="translate(1337 298)"/>
        <rect id="Rectangle_9" data-name="Rectangle 9" class="cls-3" width="25" height="26" transform="translate(1342 302)"/>
        <rect id="Rectangle_8" data-name="Rectangle 8" class="cls-1" width="15" height="10" transform="translate(1347 312)"/>
      </g>
      <g id="Close">
        <rect id="Rectangle_6" data-name="Rectangle 6" class="cls-1" width="35" height="35" transform="translate(1387 298)"/>
        <line id="Line_1" data-name="Line 1" class="cls-4" x2="22" y2="21" transform="translate(1394.065 303.939) rotate(3)"/>
        <line id="Line_2" data-name="Line 2" class="cls-4" x2="22" y2="21" transform="translate(1415.561 304.565) rotate(93)"/>
      </g>
    </g>
    <g id="Moon">
      <line id="Line_11" data-name="Line 11" class="cls-4" x2="20" transform="translate(900.5 383.5)"/>
      <line id="Line_12" data-name="Line 12" class="cls-4" x2="20" transform="translate(890.5 388.5)"/>
      <line id="Line_13" data-name="Line 13" class="cls-4" x2="20" transform="translate(880.5 393.5)"/>
      <line id="Line_14" data-name="Line 14" class="cls-4" x2="20" transform="translate(875.5 398.5)"/>
      <line id="Line_15" data-name="Line 15" class="cls-4" x2="25" transform="translate(870.5 403.5)"/>
      <line id="Line_16" data-name="Line 16" class="cls-4" x2="25" transform="translate(865.5 408.5)"/>
      <line id="Line_17" data-name="Line 17" class="cls-4" x2="25" transform="translate(865.5 413.5)"/>
      <line id="Line_18" data-name="Line 18" class="cls-4" x2="25" transform="translate(860.5 418.5)"/>
      <line id="Line_19" data-name="Line 19" class="cls-4" x2="25" transform="translate(860.5 423.5)"/>
      <line id="Line_20" data-name="Line 20" class="cls-4" x2="30" transform="translate(855.5 428.5)"/>
      <line id="Line_21" data-name="Line 21" class="cls-4" x2="30" transform="translate(855.5 433.5)"/>
      <line id="Line_22" data-name="Line 22" class="cls-4" x2="30" transform="translate(855.5 438.5)"/>
      <line id="Line_23" data-name="Line 23" class="cls-4" x2="35" transform="translate(855.5 443.5)"/>
      <line id="Line_24" data-name="Line 24" class="cls-4" x2="35" transform="translate(855.5 448.5)"/>
      <line id="Line_25" data-name="Line 25" class="cls-4" x2="40" transform="translate(855.5 453.5)"/>
      <line id="Line_26" data-name="Line 26" class="cls-4" x2="40" transform="translate(855.5 458.5)"/>
      <line id="Line_27" data-name="Line 27" class="cls-4" x2="40" transform="translate(860.5 463.5)"/>
      <line id="Line_28" data-name="Line 28" class="cls-4" x2="50" transform="translate(860.5 468.5)"/>
      <line id="Line_29" data-name="Line 29" class="cls-4" x2="54" transform="translate(866.5 473.5)"/>
      <line id="Line_30" data-name="Line 30" class="cls-4" x2="104" transform="translate(866.5 478.5)"/>
      <line id="Line_31" data-name="Line 31" class="cls-4" x2="94" transform="translate(870.5 483.5)"/>
      <line id="Line_32" data-name="Line 32" class="cls-4" x2="83" transform="translate(876.5 488.5)"/>
      <line id="Line_33" data-name="Line 33" class="cls-4" x2="73" transform="translate(881.5 493.5)"/>
      <line id="Line_34" data-name="Line 34" class="cls-4" x2="65" transform="translate(885.5 498.5)"/>
      <line id="Line_35" data-name="Line 35" class="cls-4" x2="51" transform="translate(893.5 503.5)"/>
      <line id="Line_36" data-name="Line 36" class="cls-4" x2="25.5" transform="translate(945 473.5)"/>
      <line id="Line_37" data-name="Line 37" class="cls-4" x2="20" transform="translate(954.5 468.5)"/>
      <line id="Line_38" data-name="Line 38" class="cls-4" x2="9" transform="translate(965.5 463.5)"/>
      <line id="Line_39" data-name="Line 39" class="cls-4" x2="9" transform="translate(970.5 458.5)"/>
      <line id="Line_40" data-name="Line 40" class="cls-4" x2="9" transform="translate(970.5 453.5)"/>
      <line id="Line_41" data-name="Line 41" class="cls-4" x2="4.5" transform="translate(975 448.5)"/>
      <line id="Line_42" data-name="Line 42" class="cls-4" x2="4.5" transform="translate(975 443.5)"/>
    </g>
    <g id="Hill">
      <line id="Line_4" data-name="Line 4" class="cls-4" x2="501" transform="translate(667.5 785.5)"/>
      <line id="Line_6" data-name="Line 6" class="cls-4" x2="293" transform="translate(771.5 780.5)"/>
      <line id="Line_5" data-name="Line 5" class="cls-4" x2="628" transform="translate(603.5 790.5)"/>
    </g>
    <g id="Cat">
      <line id="Line_7" data-name="Line 7" y2="25" transform="translate(908.5 738.5)" fill="none" stroke="#fdf8db" stroke-width="5"/>
      <line id="Line_9" data-name="Line 9" y2="25" transform="translate(913.5 733.5)" fill="none" stroke="#fdf8db" stroke-width="5"/>
      <line id="Line_8" data-name="Line 8" y2="25" transform="translate(932.5 738.5)" fill="none" stroke="#fdf8db" stroke-width="5"/>
      <line id="Line_10" data-name="Line 10" y2="25" transform="translate(927.5 733.5)" fill="none" stroke="#fdf8db" stroke-width="5"/>
      <rect id="Rectangle_10" data-name="Rectangle 10" width="21" height="35" transform="translate(910 743)" fill="#fdf8db"/>
      <g id="Tail">
        <line id="Line_10" data-name="tail back" y2="10" transform="translate(947.5 763.508)" fill="none" stroke="#fdf8db" stroke-width="5"/>
        <line id="Line_11" data-name="tail" stroke-width="5" x2="24" stroke="#fdf8db" transform="translate(920.5 775.5)"/>
      </g>
      
    </g>
    <!-- <g id="Shooting_Star" data-name="Shooting Star">
      <line id="Line_11" data-name="Line 11" class="cls-4" x2="60" transform="translate(710.5 310.5) rotate(-45)"/>   
      <g id="star">        
        <line id="Line_11" data-name="Line 11" class="cls-4" x2="20" transform="translate(700.5 310.5)"/>
        <line id="Line_11" data-name="Line 11" class="cls-4" x2="20" transform="translate(710.5 300.5) rotate(90)"/>
      </g>   
    </g> -->
    <g id="Star">
      <rect id="Rectangle_11" data-name="Rectangle 11" class="cls-3" width="10" height="10" transform="translate(702 689)"/>
      <rect id="Rectangle_12" data-name="Rectangle 12" class="cls-3" width="10" height="10" transform="translate(454 585)"/>
      <rect id="Rectangle_13" data-name="Rectangle 13" class="cls-3" width="10" height="10" transform="translate(1367 535)"/>
      <rect id="Rectangle_21" data-name="Rectangle 21" class="cls-3" width="10" height="10" transform="translate(970 674)"/>
      <rect id="Rectangle_14" data-name="Rectangle 14" class="cls-3" width="5" height="5" transform="translate(609 650)"/>
      <rect id="Rectangle_15" data-name="Rectangle 15" class="cls-3" width="5" height="5" transform="translate(1109 500)"/>
      <rect id="Rectangle_16" data-name="Rectangle 16" class="cls-3" width="5" height="5" transform="translate(1199 534)"/>
      <rect id="Rectangle_17" data-name="Rectangle 17" class="cls-3" width="5" height="5" transform="translate(1104 669)"/>
      <rect id="Rectangle_22" data-name="Rectangle 22" class="cls-3" width="5" height="5" transform="translate(1154 714)"/>
      <rect id="Rectangle_23" data-name="Rectangle 23" class="cls-3" width="5" height="5" transform="translate(1208 694)"/>
      <rect id="Rectangle_24" data-name="Rectangle 24" class="cls-3" width="5" height="5" transform="translate(1233 729)"/>
      <rect id="Rectangle_25" data-name="Rectangle 25" class="cls-3" width="5" height="5" transform="translate(1223 768)"/>
      <rect id="Rectangle_26" data-name="Rectangle 26" class="cls-3" width="5" height="5" transform="translate(1253 713)"/>
      <rect id="Rectangle_27" data-name="Rectangle 27" class="cls-3" width="5" height="5" transform="translate(1257 519)"/>
      <rect id="Rectangle_28" data-name="Rectangle 28" class="cls-3" width="5" height="5" transform="translate(1312 704)"/>
      <rect id="Rectangle_29" data-name="Rectangle 29" class="cls-3" width="5" height="5" transform="translate(1342 703)"/>
      <rect id="Rectangle_30" data-name="Rectangle 30" class="cls-3" width="5" height="5" transform="translate(1337 664)"/>
      <rect id="Rectangle_33" data-name="Rectangle 33" class="cls-3" width="5" height="5" transform="translate(1336 570)"/>
      <rect id="Rectangle_34" data-name="Rectangle 34" class="cls-3" width="5" height="5" transform="translate(1337 545)"/>
      <rect id="Rectangle_35" data-name="Rectangle 35" class="cls-3" width="5" height="5" transform="translate(1382 520)"/>
      <rect id="Rectangle_36" data-name="Rectangle 36" class="cls-3" width="5" height="5" transform="translate(1411 431)"/>
      <rect id="Rectangle_37" data-name="Rectangle 37" class="cls-3" width="5" height="5" transform="translate(1391 361)"/>
      <rect id="Rectangle_38" data-name="Rectangle 38" class="cls-3" width="5" height="5" transform="translate(1297 391)"/>
      <rect id="Rectangle_39" data-name="Rectangle 39" class="cls-3" width="5" height="5" transform="translate(1272 431)"/>
      <rect id="Rectangle_40" data-name="Rectangle 40" class="cls-3" width="5" height="5" transform="translate(1297 466)"/>
      <rect id="Rectangle_41" data-name="Rectangle 41" class="cls-3" width="5" height="5" transform="translate(1189 475)"/>
      <rect id="Rectangle_42" data-name="Rectangle 42" class="cls-3" width="5" height="5" transform="translate(1144 455)"/>
      <rect id="Rectangle_43" data-name="Rectangle 43" class="cls-3" width="5" height="5" transform="translate(1139 460)"/>
      <rect id="Rectangle_44" data-name="Rectangle 44" class="cls-3" width="5" height="5" transform="translate(1119 397)"/>
      <rect id="Rectangle_45" data-name="Rectangle 45" class="cls-3" width="5" height="5" transform="translate(1093 391)"/>
      <rect id="Rectangle_46" data-name="Rectangle 46" class="cls-3" width="5" height="5" transform="translate(1094 376)"/>
      <rect id="Rectangle_47" data-name="Rectangle 47" class="cls-3" width="5" height="5" transform="translate(1029 475)"/>
      <rect id="Rectangle_49" data-name="Rectangle 49" class="cls-3" width="5" height="5" transform="translate(1262 585)"/>
      <rect id="Rectangle_50" data-name="Rectangle 50" class="cls-3" width="5" height="5" transform="translate(1236 600)"/>
      <rect id="Rectangle_51" data-name="Rectangle 51" class="cls-3" width="5" height="5" transform="translate(1241 575)"/>
      <rect id="Rectangle_52" data-name="Rectangle 52" class="cls-3" width="5" height="5" transform="translate(1203 624)"/>
      <rect id="Rectangle_53" data-name="Rectangle 53" class="cls-3" width="5" height="5" transform="translate(732 649)"/>
      <rect id="Rectangle_54" data-name="Rectangle 54" class="cls-3" width="5" height="5" transform="translate(812 654)"/>
      <rect id="Rectangle_55" data-name="Rectangle 55" class="cls-3" width="5" height="5" transform="translate(832 674)"/>
      <rect id="Rectangle_56" data-name="Rectangle 56" class="cls-3" width="5" height="5" transform="translate(807 694)"/>
      <rect id="Rectangle_57" data-name="Rectangle 57" class="cls-3" width="5" height="5" transform="translate(807 764)"/>
      <rect id="Rectangle_58" data-name="Rectangle 58" class="cls-3" width="5" height="5" transform="translate(748 738)"/>
      <rect id="Rectangle_59" data-name="Rectangle 59" class="cls-3" width="5" height="5" transform="translate(702 729)"/>
      <rect id="Rectangle_60" data-name="Rectangle 60" class="cls-3" width="5" height="5" transform="translate(673 744)"/>
      <rect id="Rectangle_61" data-name="Rectangle 61" class="cls-3" width="5" height="5" transform="translate(648 724)"/>
      <rect id="Rectangle_62" data-name="Rectangle 62" class="cls-3" width="5" height="5" transform="translate(633 773)"/>
      <rect id="Rectangle_63" data-name="Rectangle 63" class="cls-3" width="5" height="5" transform="translate(609 758)"/>
      <rect id="Rectangle_64" data-name="Rectangle 64" class="cls-3" width="5" height="5" transform="translate(558 747)"/>
      <rect id="Rectangle_65" data-name="Rectangle 65" class="cls-3" width="5" height="5" transform="translate(528 768)"/>
      <rect id="Rectangle_66" data-name="Rectangle 66" class="cls-3" width="5" height="5" transform="translate(573 679)"/>
      <rect id="Rectangle_67" data-name="Rectangle 67" class="cls-3" width="5" height="5" transform="translate(500 674)"/>
      <rect id="Rectangle_68" data-name="Rectangle 68" class="cls-3" width="5" height="5" transform="translate(479 719)"/>
      <rect id="Rectangle_69" data-name="Rectangle 69" class="cls-3" width="5" height="5" transform="translate(435 669)"/>
      <rect id="Rectangle_70" data-name="Rectangle 70" class="cls-3" width="5" height="5" transform="translate(425 684)"/>
      <rect id="Rectangle_71" data-name="Rectangle 71" class="cls-3" width="5" height="5" transform="translate(450 749)"/>
      <rect id="Rectangle_72" data-name="Rectangle 72" class="cls-3" width="5" height="5" transform="translate(420 763)"/>
      <rect id="Rectangle_73" data-name="Rectangle 73" class="cls-3" width="5" height="5" transform="translate(430 778)"/>
      <rect id="Rectangle_74" data-name="Rectangle 74" class="cls-3" width="5" height="5" transform="translate(553 589)"/>
      <rect id="Rectangle_75" data-name="Rectangle 75" class="cls-3" width="5" height="5" transform="translate(643 569)"/>
      <rect id="Rectangle_76" data-name="Rectangle 76" class="cls-3" width="5" height="5" transform="translate(682 510)"/>
      <rect id="Rectangle_77" data-name="Rectangle 77" class="cls-3" width="5" height="5" transform="translate(474 570)"/>
      <rect id="Rectangle_78" data-name="Rectangle 78" class="cls-3" width="5" height="5" transform="translate(435 559)"/>
      <rect id="Rectangle_79" data-name="Rectangle 79" class="cls-3" width="5" height="5" transform="translate(490 510)"/>
      <rect id="Rectangle_80" data-name="Rectangle 80" class="cls-3" width="5" height="5" transform="translate(445 496)"/>
      <rect id="Rectangle_81" data-name="Rectangle 81" class="cls-3" width="5" height="5" transform="translate(558 486)"/>
      <rect id="Rectangle_82" data-name="Rectangle 82" class="cls-3" width="5" height="5" transform="translate(618 461)"/>
      <rect id="Rectangle_83" data-name="Rectangle 83" class="cls-3" width="5" height="5" transform="translate(579 446)"/>
      <rect id="Rectangle_84" data-name="Rectangle 84" class="cls-3" width="5" height="5" transform="translate(593 426)"/>
      <rect id="Rectangle_85" data-name="Rectangle 85" class="cls-3" width="5" height="5" transform="translate(698 441)"/>
      <rect id="Rectangle_86" data-name="Rectangle 86" class="cls-3" width="5" height="5" transform="translate(677 391)"/>
      <rect id="Rectangle_87" data-name="Rectangle 87" class="cls-3" width="5" height="5" transform="translate(777 416)"/>
      <rect id="Rectangle_88" data-name="Rectangle 88" class="cls-3" width="5" height="5" transform="translate(579 376)"/>
      <rect id="Rectangle_89" data-name="Rectangle 89" class="cls-3" width="5" height="5" transform="translate(520 396)"/>
      <rect id="Rectangle_90" data-name="Rectangle 90" class="cls-3" width="5" height="5" transform="translate(513 446)"/>
      <rect id="Rectangle_91" data-name="Rectangle 91" class="cls-3" width="5" height="5" transform="translate(485 456)"/>
      <rect id="Rectangle_92" data-name="Rectangle 92" class="cls-3" width="5" height="5" transform="translate(420 411)"/>
      <rect id="Rectangle_97" data-name="Rectangle 97" class="cls-3" width="15" height="5" transform="translate(449 421)"/>
      <rect id="Rectangle_98" data-name="Rectangle 98" class="cls-3" width="15" height="5" transform="translate(518 744)"/>
      <rect id="Rectangle_100" data-name="Rectangle 100" class="cls-3" width="15" height="5" transform="translate(1177 674)"/>
      <rect id="Rectangle_102" data-name="Rectangle 102" class="cls-3" width="15" height="5" transform="translate(1401 381)"/>
      <rect id="Rectangle_93" data-name="Rectangle 93" class="cls-3" width="5" height="5" transform="translate(445 381)"/>
      <rect id="Rectangle_96" data-name="Rectangle 96" class="cls-3" width="5" height="15" transform="translate(454 416)"/>
      <rect id="Rectangle_99" data-name="Rectangle 99" class="cls-3" width="5" height="15" transform="translate(523 739)"/>
      <rect id="Rectangle_101" data-name="Rectangle 101" class="cls-3" width="5" height="15" transform="translate(1182 669)"/>
      <rect id="Rectangle_103" data-name="Rectangle 103" class="cls-3" width="5" height="15" transform="translate(1406 376)"/>
      <rect id="Rectangle_94" data-name="Rectangle 94" class="cls-3" width="5" height="5" transform="translate(425 366)"/>
      <rect id="Rectangle_95" data-name="Rectangle 95" class="cls-3" width="5" height="5" transform="translate(435 356)"/>
      <rect id="Rectangle_48" data-name="Rectangle 48" class="cls-3" width="5" height="5" transform="translate(1020 486)"/>
      <rect id="Rectangle_31" data-name="Rectangle 31" class="cls-3" width="5" height="5" transform="translate(1311 624)"/>
      <rect id="Rectangle_32" data-name="Rectangle 32" class="cls-3" width="5" height="5" transform="translate(1252 668)"/>
      <rect id="Rectangle_18" data-name="Rectangle 18" class="cls-3" width="5" height="5" transform="translate(1049 689)"/>
      <rect id="Rectangle_19" data-name="Rectangle 19" class="cls-3" width="5" height="5" transform="translate(1005 664)"/>
      <rect id="Rectangle_20" data-name="Rectangle 20" class="cls-3" width="5" height="5" transform="translate(995 699)"/>
    </g>
    <g id="Linkedin" transform="translate(16 -6)">
      <rect id="Rectangle_158" data-name="Rectangle 158" class="cls-3" width="45" height="45" transform="translate(1351 736)"/>
      <rect id="Rectangle_145" data-name="Rectangle 145" class="cls-3" width="39" height="3" transform="translate(1354 733)"/>
      <rect id="Rectangle_157" data-name="Rectangle 157" class="cls-1" width="17" height="3" transform="translate(1371 756)"/>
      <rect id="Rectangle_146" data-name="Rectangle 146" class="cls-3" width="39" height="3" transform="translate(1354 781)"/>
      <rect id="Rectangle_147" data-name="Rectangle 147" class="cls-3" width="3" height="39" transform="translate(1348 739)"/>
      <rect id="Rectangle_148" data-name="Rectangle 148" class="cls-3" width="3" height="39" transform="translate(1396 739)"/>
      <rect id="Rectangle_152" data-name="Rectangle 152" class="cls-1" width="6" height="6" transform="translate(1358 743)"/>
      <rect id="Rectangle_153" data-name="Rectangle 153" class="cls-1" width="6" height="22" transform="translate(1358 752)"/>
      <rect id="Rectangle_154" data-name="Rectangle 154" class="cls-1" width="6" height="22" transform="translate(1371 752)"/>
      <rect id="Rectangle_155" data-name="Rectangle 155" class="cls-1" width="6" height="18" transform="translate(1383 756)"/>
      <rect id="Rectangle_156" data-name="Rectangle 156" class="cls-1" width="6" height="6" transform="translate(1380 752)"/>
    </g>
    <g id="Github" transform="translate(6 -6)">
      <rect id="Rectangle_118" data-name="Rectangle 118" class="cls-3" width="42" height="3" transform="translate(1291 744)"/>
      <rect id="Rectangle_127" data-name="Rectangle 127" class="cls-3" width="37" height="3" transform="translate(1293 741)"/>
      <rect id="Rectangle_128" data-name="Rectangle 128" class="cls-3" width="33" height="3" transform="translate(1295 738)"/>
      <rect id="Rectangle_129" data-name="Rectangle 129" class="cls-3" width="37" height="2" transform="translate(1293 737)"/>
      <rect id="Rectangle_130" data-name="Rectangle 130" class="cls-3" width="10" height="2" transform="translate(1293 735)"/>
      <rect id="Rectangle_133" data-name="Rectangle 133" class="cls-3" width="10" height="2" transform="translate(1320 735)"/>
      <rect id="Rectangle_134" data-name="Rectangle 134" class="cls-3" width="13" height="2" transform="translate(1305 735)"/>
      <rect id="Rectangle_135" data-name="Rectangle 135" class="cls-3" width="14" height="2" transform="translate(1305 767)"/>
      <rect id="Rectangle_141" data-name="Rectangle 141" class="cls-3" width="7" height="2" transform="translate(1295 772)"/>
      <rect id="Rectangle_142" data-name="Rectangle 142" class="cls-3" width="5" height="2" transform="translate(1293 770)"/>
      <rect id="Rectangle_143" data-name="Rectangle 143" class="cls-3" width="5" height="2" transform="translate(1291 768)"/>
      <rect id="Rectangle_144" data-name="Rectangle 144" class="cls-3" width="5" height="2" transform="translate(1288 766)"/>
      <rect id="Rectangle_136" data-name="Rectangle 136" class="cls-3" width="19" height="3" transform="translate(1302 769)"/>
      <rect id="Rectangle_137" data-name="Rectangle 137" class="cls-3" width="19" height="3" transform="translate(1302 772)"/>
      <rect id="Rectangle_138" data-name="Rectangle 138" class="cls-3" width="17" height="3" transform="translate(1304 775)"/>
      <rect id="Rectangle_139" data-name="Rectangle 139" class="cls-3" width="17" height="3" transform="translate(1304 778)"/>
      <rect id="Rectangle_140" data-name="Rectangle 140" class="cls-3" width="17" height="3" transform="translate(1304 780)"/>
      <rect id="Rectangle_131" data-name="Rectangle 131" class="cls-3" width="7" height="2" transform="translate(1293 733)"/>
      <rect id="Rectangle_132" data-name="Rectangle 132" class="cls-3" width="7" height="2" transform="translate(1323 733)"/>
      <rect id="Rectangle_119" data-name="Rectangle 119" class="cls-3" width="42" height="3" transform="translate(1291 747)"/>
      <rect id="Rectangle_122" data-name="Rectangle 122" class="cls-3" width="42" height="3" transform="translate(1291 752)"/>
      <rect id="Rectangle_120" data-name="Rectangle 120" class="cls-3" width="42" height="3" transform="translate(1291 750)"/>
      <rect id="Rectangle_121" data-name="Rectangle 121" class="cls-3" width="42" height="3" transform="translate(1291 755)"/>
      <rect id="Rectangle_123" data-name="Rectangle 123" class="cls-3" width="37" height="3" transform="translate(1293 757)"/>
      <rect id="Rectangle_124" data-name="Rectangle 124" class="cls-3" width="33" height="3" transform="translate(1295 759)"/>
      <rect id="Rectangle_125" data-name="Rectangle 125" class="cls-3" width="29" height="3" transform="translate(1297 761)"/>
      <rect id="Rectangle_126" data-name="Rectangle 126" class="cls-3" width="10" height="3" transform="translate(1307 764)"/>
    </g>
    <path id="Name" class="cls-3" d="M40.5,0H35.438V-30.375H10.125V0H0V-50.625H10.125V-40.5H35.438V-50.625H45.563V0ZM35.438-50.625H10.125V-60.75H35.438v10.125ZM64.436,0H59.373V-60.75H69.5V0ZM88.371,0H83.309V-45.562H93.434V0Zm0-50.625H83.309V-60.75H93.434v10.125ZM171.68,0H141.3V-10.125h35.438V0Zm5.063-10.125v-20.25h10.125v20.25H176.742Zm0-20.25H151.43V-40.5h25.313v10.125ZM151.43-40.5H141.3V-50.625H151.43V-40.5ZM181.8-50.625H151.43V-60.75h35.438v10.125ZM236.115,0h-5.062V-30.375h10.125V0ZM205.74,0h-5.062V-60.75H210.8v30.375h10.125V-20.25H210.8V0Zm25.313-30.375H220.928V-40.5h10.125v10.125ZM290.426,0H265.113V-10.125h20.25V-45.562h10.125V0ZM265.113-10.125H254.988V-45.562h10.125v35.438ZM349.8,0H319.424V-10.125H309.3V-20.25h10.125V-30.375h25.313v-5.062h10.125V0ZM339.674-10.125h5.063V-20.25H319.424v10.125h20.25Zm5.063-25.312H309.3V-45.562h35.438v10.125ZM373.734,0h-5.062V-45.562H378.8V0Zm0-50.625h-5.062V-60.75H378.8v10.125ZM428.044,0H392.607V-60.75h10.125v30.375h10.125V-20.25H402.732v10.125h30.375V0Zm5.063-10.125v-20.25h10.125v20.25H433.107Zm0-20.25h-20.25V-40.5h20.25v10.125Z" transform="translate(705 613)"/>
    
  </g>
</svg>
