<svg xmlns="http://www.w3.org/2000/svg" width="395" height="395" viewBox="0 0 395 395">
  <g id="Email_Card" data-name="Email Card" transform="translate(-239 -990)">
    <rect id="Rectangle_159" data-name="Rectangle 159" width="395" height="395" rx="15" transform="translate(239 990)" fill="#2c2c2c"/>
    <g id="Rectangle_162" data-name="Rectangle 162" transform="translate(259 1010)" fill="#2c2c2c" stroke="#fdf8db" stroke-width="7">
      <rect width="355" height="355" rx="15" stroke="none"/>
      <rect x="3.5" y="3.5" width="348" height="348" rx="11.5" fill="none"/>
    </g>
    <path id="Path_2" data-name="Path 2" d="M69.438,18.938H12.625V12.625H6.313V6.313H0V-63.125H6.313v-6.312h6.313V-75.75H75.75v6.313h6.313v6.313h6.313V-6.312H75.75V0H25.25V-37.875H37.875V-50.5H69.438v37.875H75.75v-50.5H12.625V6.313H75.75V0H88.375V6.313H82.063v6.313H75.75v6.313ZM50.5-12.625h6.313v-25.25H37.875v25.25H50.5Z" transform="translate(489 1310)" fill="#fdf8db"/>
    <path id="Path_1" data-name="Path 1" d="M33.75,0H0V-45H37.5v7.5H7.5V-30H18.75v7.5H7.5v15h30V0ZM96.48,0H92.73V-26.25h7.5V0ZM73.98,0H70.23V-26.25h7.5V0ZM51.48,0H47.73V-33.75h22.5v7.5h-15V0ZM92.73-26.25h-15v-7.5h15v7.5ZM140.46,0h-22.5V-7.5h-7.5V-15h7.5v-7.5h18.75v-3.75h7.5V0Zm-7.5-7.5h3.75V-15H117.96v7.5h15Zm3.75-18.75H110.46v-7.5h26.25v7.5ZM158.19,0h-3.75V-33.75h7.5V0Zm0-37.5h-3.75V-45h7.5v7.5ZM175.92,0h-3.75V-45h7.5V0Z" transform="translate(289 1085)" fill="#fdf8db"/>
    <g id="Group_2" data-name="Group 2" transform="translate(7 -6)">
      <path id="Union_1" data-name="Union 1" d="M7.215,29V27.525h-1.2V26.051H4.57V24.576H2.886V21.627h-1.2V20.153H0V17.2H2.886v1.474H4.57v1.475H6.013V8.11H8.9V18.678h1.443V14.008h2.886v4.669h1.443V15.483h1.443v4.669h1.443V16.958H19v9.093H17.557v1.474H16.114V29ZM.962,12.534V11.059H2.405v1.475Zm1.443-1.475V9.585H3.848v1.475Zm7.937-3.441V6.144h3.126V7.619ZM0,7.619V6.144H3.126V7.619ZM9.62,3.932V2.458h1.443V3.932Zm-7.215,0V2.458H.962V.983H2.405V2.458H3.848V3.932Zm3.608-.737V0H7.456V3.195Zm5.051-.737V.983h1.443V2.458Z" transform="translate(367 1306)" fill="#fdf8db"/>
      <path id="Path_3" data-name="Path 3" d="M15.75,0H3.5V-3.5H15.75V-7h3.5v3.5H17.5V0ZM3.5-3.5H0v-14H3.5v14ZM17.5-14H15.75v-3.5H3.5V-21h14v3.5h1.75V-14ZM25.774,0h-1.75V-21h3.5V0Zm8.274,0H32.3V-15.75h3.5V0Zm0-17.5H32.3V-21h3.5v3.5ZM51.072,0h-7V-3.5h8.75V0Zm1.75-3.5V-7h3.5v3.5h-3.5Zm-8.75,0h-3.5v-8.75h3.5V-3.5Zm10.5-5.25h-1.75v-3.5h3.5v3.5Zm-1.75-3.5h-8.75v-3.5h8.75v3.5ZM73.346,0H71.6V-3.5h3.5V0Zm-10.5,0H61.1V-21h3.5v10.5h3.5V-7h3.5v3.5H68.1V-7H64.6V0ZM68.1-10.5V-14h3.5v3.5H68.1ZM71.6-14v-3.5h3.5V-14H71.6Z" transform="translate(282 1334)" fill="#fdf8db"/>
    </g>
  </g>
</svg>
